<svg width="124" height="113" viewBox="0 0 124 113" fill="none" xmlns="http://www.w3.org/2000/svg">
<path d="M37.5971 4.7393L25.8497 27.1256C25.0911 28.571 25.5906 30.3781 26.9732 31.1907L45.3677 42.0032C46.7692 42.827 48.5511 42.3204 49.3482 40.8712L71.8322 0.00149536H45.2957C42.0836 0.00149536 39.1291 1.81959 37.5971 4.7393Z" fill="#29A361"/>
<path d="M71.8321 0L49.3488 40.8702C48.5503 42.3191 46.7696 42.827 45.3685 42.0037L40.5674 39.1826C41.7378 39.3775 42.9557 38.8211 43.5756 37.6926L64.3155 0H71.8321Z" fill="#248F55"/>
<path d="M96.4331 21.6758L88.3306 4.99398C86.8441 1.93336 83.8152 0.00149536 80.5034 0.00149536H57.0767L75.0636 31.5599C75.0046 31.5873 74.9454 31.6147 74.8864 31.6421C73.755 32.1689 73.8012 33.8473 74.9596 34.3074L90.4914 40.4756C91.2112 40.7614 92.0186 40.3898 92.2949 39.6456L98.2824 23.5215C98.7251 22.3288 97.5626 21.1779 96.4331 21.6758Z" fill="#34CB79"/>
<path d="M98.2827 23.5203L92.2936 39.6441C92.0184 40.3905 91.2098 40.7624 90.4907 40.4751L85.7912 38.608L91.3935 23.5203C91.7119 22.6646 91.2033 21.8314 90.4734 21.6128C89.7784 21.4044 89.185 20.9336 88.8602 20.265L81.4414 4.99348C79.9558 1.93386 76.9279 0 73.6147 0H80.504C83.8148 0 86.8427 1.93386 88.3306 4.99348L96.4327 21.6765C97.5636 21.1789 98.7242 22.3278 98.2827 23.5203Z" fill="#2FB86E"/>
<path d="M80.7813 85.9925C80.5632 85.0664 79.4077 84.6696 78.7023 85.3988L66.563 97.9527C66.0786 98.4536 66.0786 99.2654 66.563 99.766L78.7493 112.368C79.4495 113.092 80.5933 112.706 80.8234 111.795H98.7441C102.043 111.795 105.063 109.878 106.556 106.836L116.781 85.9923H80.7813V85.9925Z" fill="#29A361"/>
<path d="M95.9095 85.9932L101.72 95.0859C103.034 97.1415 103.179 99.7684 102.101 101.966L99.7112 106.836C98.2208 109.878 95.2001 111.796 91.9019 111.796H98.7442C102.042 111.796 105.063 109.878 106.556 106.836L116.781 85.9934H95.9095V85.9932Z" fill="#248F55"/>
<path d="M56.3248 109.399V87.2132C56.3248 85.5457 55.0177 84.1937 53.405 84.1937H5.30908L17.6865 107.693C19.2207 110.606 22.1713 112.419 25.3786 112.419H53.405C55.0174 112.419 56.3248 111.067 56.3248 109.399Z" fill="#29A361"/>
<path d="M25.7067 84.1965L15.0255 102.644L5.30908 84.1965H25.7067Z" fill="#248F55"/>
<path d="M56.324 87.2141V109.401C56.324 111.068 55.0171 112.42 53.4052 112.42H45.7446C47.3566 112.42 48.6635 111.068 48.6635 109.401V87.2141C48.6635 85.5471 47.3566 84.1956 45.7446 84.1956H53.4052C55.0171 84.1953 56.324 85.5471 56.324 87.2141Z" fill="#248F55"/>
<path d="M32.8285 64.5901L30.6687 47.7811C30.562 46.9506 29.8244 46.367 29.0216 46.4773L12.7051 48.7194C11.4764 48.8882 11.0185 50.4339 11.8601 51.2938L1.56256 66.6429C-0.325492 69.4571 -0.517115 73.1316 1.06714 76.1395L12.2729 97.4147L30.4679 65.9842C30.4744 65.9892 30.4806 65.9944 30.4872 65.9994C31.5257 66.8145 33.0001 65.9267 32.8285 64.5901Z" fill="#34CB79"/>
<path d="M30.4864 65.9988C30.4814 65.9936 30.4741 65.9886 30.4691 65.9834L12.2734 97.4131L8.53125 90.309L23.341 64.7227L23.7517 64.0129C23.9763 63.6251 24.4152 63.4575 24.8444 63.5437C24.8466 63.5442 24.8487 63.5444 24.8509 63.5449C25.764 63.7132 26.7007 62.9265 26.5603 61.8468L24.6631 47.0745L29.0204 46.477C29.8239 46.3667 30.563 46.9515 30.6696 47.7797L32.8297 64.591C33.0011 65.9269 31.5254 66.8141 30.4864 65.9988Z" fill="#2FB86E"/>
<path d="M121.704 65.4875L107.618 44.3804C106.754 43.0856 105.073 42.694 103.756 43.4802L85.3988 54.4348C83.9419 55.3041 83.4949 57.2637 84.4224 58.715L110.3 99.2041L122.306 74.7311C123.759 71.7688 123.528 68.2215 121.704 65.4875Z" fill="#34CB79"/>
<path d="M122.306 74.7309L110.298 99.2027L106.271 92.8987L115.184 74.7307C116.637 71.7684 116.406 68.2216 114.581 65.4876L100.994 45.1295L103.756 43.4804C105.073 42.693 106.755 43.0853 107.618 44.3806L121.704 65.4878C123.529 68.2218 123.759 71.7689 122.306 74.7309Z" fill="#2FB86E"/>
</svg>
