<svg width="279" height="360" viewBox="0 0 279 360" fill="none" xmlns="http://www.w3.org/2000/svg">
<g opacity="0.1">
<path d="M-28.2594 -28.0155L-70.3597 52.2121C-73.0781 57.3922 -71.288 63.8686 -66.3333 66.7807L-0.411301 105.53C4.61151 108.483 10.9975 106.667 13.8539 101.474L94.432 -44.9948H-0.66925C-12.1806 -44.9948 -22.7689 -38.4791 -28.2594 -28.0155Z" fill="#A0A0B2"/>
<path d="M94.4322 -45L13.8568 101.47C10.9951 106.663 4.61349 108.483 -0.407593 105.532L-17.6139 95.422C-13.4193 96.1206 -9.05472 94.1265 -6.83319 90.0822L67.4944 -45H94.4322Z" fill="#A0A0B2"/>
<path d="M182.595 32.6814L153.557 -27.1026C148.23 -38.0712 137.375 -44.9946 125.507 -44.9946H41.55L106.011 68.1041C105.8 68.2022 105.588 68.3004 105.376 68.3985C101.322 70.2864 101.487 76.3016 105.639 77.9503L161.301 100.056C163.881 101.08 166.774 99.7484 167.765 97.0816L189.223 39.2961C190.809 35.0216 186.643 30.897 182.595 32.6814Z" fill="#A0A0B2"/>
<path d="M189.224 39.2916L167.76 97.0762C166.774 99.751 163.876 101.084 161.299 100.054L144.457 93.3629L164.534 39.2916C165.675 36.2251 163.852 33.239 161.237 32.4556C158.746 31.7089 156.619 30.0217 155.455 27.6253L128.868 -27.1044C123.544 -38.0695 112.693 -45 100.819 -45H125.508C137.373 -45 148.225 -38.0695 153.557 -27.1044L182.593 32.684C186.647 30.9005 190.806 35.018 189.224 39.2916Z" fill="#A0A0B2"/>
<path d="M126.503 263.179C125.721 259.86 121.58 258.438 119.052 261.051L75.5472 306.042C73.8114 307.837 73.8114 310.746 75.5472 312.54L119.22 357.704C121.73 360.299 125.829 358.914 126.654 355.651H190.878C202.701 355.651 213.523 348.78 218.872 337.876L255.519 263.178L126.503 263.179Z" fill="#A0A0B2"/>
<path d="M180.719 263.18L201.543 295.766C206.251 303.133 206.772 312.547 202.908 320.422L194.343 337.877C189.002 348.777 178.176 355.653 166.356 355.653H190.877C202.697 355.653 213.523 348.777 218.874 337.877L255.517 263.181L180.719 263.18Z" fill="#A0A0B2"/>
<path d="M38.8562 347.063V267.552C38.8562 261.576 34.1716 256.731 28.3922 256.731H-143.973L-99.6153 340.948C-94.1171 351.387 -83.5426 357.883 -72.0485 357.883H28.3922C34.1707 357.884 38.8562 353.039 38.8562 347.063Z" fill="#A0A0B2"/>
<path d="M-70.8728 256.738L-109.152 322.85L-143.974 256.738H-70.8728Z" fill="#A0A0B2"/>
<path d="M38.8522 267.553V347.066C38.8522 353.04 34.169 357.883 28.3922 357.883L0.937851 357.884C6.71468 357.884 11.3984 353.04 11.3984 347.066V267.553C11.3984 261.579 6.71468 256.735 0.937851 256.735H28.3916C34.1684 256.734 38.8522 261.579 38.8522 267.553Z" fill="#A0A0B2"/>
<path d="M-45.3496 186.474L-53.09 126.234C-53.4722 123.258 -56.1156 121.167 -58.9928 121.562L-117.468 129.597C-121.871 130.202 -123.512 135.741 -120.496 138.823L-157.4 193.831C-164.166 203.916 -164.853 217.085 -159.176 227.865L-119.016 304.111L-53.8096 191.47C-53.7863 191.488 -53.7638 191.507 -53.7405 191.525C-50.0187 194.446 -44.7345 191.264 -45.3496 186.474Z" fill="#A0A0B2"/>
<path d="M-53.7429 191.525C-53.761 191.507 -53.7869 191.489 -53.805 191.47L-119.014 304.108L-132.426 278.648L-77.8786 184.408C-77.0737 183.018 -75.5009 182.418 -73.9627 182.727C-73.9549 182.728 -73.9472 182.729 -73.9394 182.731C-70.6671 183.334 -67.3102 180.515 -67.8131 176.645L-74.6123 123.705L-58.9969 121.563C-56.1171 121.168 -53.4686 123.264 -53.0864 126.232L-45.3451 186.48C-44.7308 191.268 -50.0194 194.447 -53.7429 191.525Z" fill="#A0A0B2"/>
<path d="M273.161 189.692L222.68 114.048C219.584 109.408 213.56 108.005 208.839 110.822L143.052 150.081C137.831 153.197 136.229 160.219 139.553 165.421L232.293 310.525L275.32 222.819C280.528 212.203 279.7 199.49 273.161 189.692Z" fill="#A0A0B2"/>
<path d="M275.319 222.821L232.285 310.523L217.852 287.931L249.794 222.82C255.003 212.204 254.176 199.493 247.635 189.695L198.94 116.736L208.841 110.826C213.56 108.004 219.586 109.41 222.679 114.052L273.161 189.696C279.701 199.494 280.527 212.206 275.319 222.821Z" fill="#A0A0B2"/>
</g>
</svg>
